<!DOCTYPE svg PUBLIC "-//W3C//DTD SVG 20010904//EN" "http://www.w3.org/TR/2001/REC-SVG-20010904/DTD/svg10.dtd">
<svg version="1.0" xmlns="http://www.w3.org/2000/svg" width="700px" height="370px" viewBox="0 0 7000 3700" preserveAspectRatio="xMidYMid meet">
<g id="layer101" fill="#0309f6" stroke="none">
 <path d="M3930 3686 c0 -2 96 -111 214 -241 186 -205 214 -240 206 -258 -46 -119 -437 -1051 -461 -1102 -39 -80 -77 -115 -125 -115 l-34 0 0 -50 0 -50 305 0 305 0 0 50 0 50 -70 0 c-64 0 -120 14 -120 30 0 28 349 890 360 890 6 0 340 -759 367 -832 16 -46 16 -49 0 -65 -12 -13 -38 -19 -92 -21 l-75 -4 0 -49 0 -49 200 0 200 0 0 50 c0 46 -2 50 -25 50 -64 0 -70 11 -466 889 l-374 831 -157 0 c-87 0 -158 -2 -158 -4z"/>
 <path d="M0 3536 c0 -41 5 -78 10 -81 6 -3 10 -16 10 -27 0 -12 8 -30 18 -41 17 -19 16 -20 -11 -13 l-27 6 0 -1690 0 -1690 1740 0 1740 0 0 729 0 728 51 39 c102 78 149 195 149 374 0 183 -45 304 -146 400 l-54 51 0 525 0 524 -1620 0 c-1433 0 -1620 2 -1620 15 0 8 -3 15 -8 15 -4 0 -13 14 -20 30 -8 17 -18 30 -23 30 -13 0 -65 61 -61 72 1 4 -5 8 -13 8 -8 0 -15 7 -15 15 0 8 -7 15 -15 15 -8 0 -19 9 -25 20 -6 12 -21 20 -35 20 -24 0 -25 -2 -25 -74z"/>
 <path d="M6020 3249 c-222 -15 -400 -96 -543 -248 -167 -177 -241 -394 -240 -706 0 -173 15 -278 57 -403 108 -317 367 -507 721 -530 207 -13 407 7 603 60 l82 23 0 167 0 168 -68 0 -68 0 -11 -85 c-8 -71 -15 -92 -40 -123 -38 -48 -111 -87 -195 -107 -88 -20 -262 -20 -342 1 -214 55 -363 233 -428 514 -25 110 -36 411 -19 531 44 303 206 522 443 600 62 21 93 24 208 24 79 0 161 -6 198 -14 l63 -14 -3 -257 c-3 -234 -5 -260 -21 -278 -21 -22 -94 -42 -157 -42 l-40 0 0 -45 0 -45 355 0 355 0 0 44 0 43 -70 6 c-90 8 -122 23 -137 67 -8 24 -12 123 -12 303 -1 147 -3 267 -5 267 -3 0 -55 11 -118 24 -228 50 -399 66 -568 55z"/>
 </g>
<g id="layer102" fill="#807f7f" stroke="none">
 <path d="M0 3536 c0 -41 5 -78 10 -81 6 -3 10 -16 10 -27 0 -12 8 -30 18 -41 17 -19 16 -20 -11 -13 l-27 6 0 -1690 0 -1690 1740 0 1740 0 0 96 c0 84 -2 95 -16 90 -11 -4 -40 16 -92 65 -78 75 -85 79 -513 282 -53 25 -112 60 -130 77 l-34 31 65 -2 c69 -2 265 -34 308 -50 17 -7 29 -6 36 1 7 7 -4 25 -35 58 -25 26 -72 78 -105 117 -142 166 -295 300 -410 359 -93 47 -265 108 -431 152 -76 20 -142 40 -148 44 -5 4 -37 14 -69 21 l-59 14 74 6 c41 4 109 3 152 -2 43 -6 99 -11 125 -13 26 -2 66 -7 90 -11 36 -7 42 -5 36 8 -3 9 -22 28 -42 44 -20 15 -75 63 -122 108 -47 44 -148 136 -225 205 -76 69 -168 152 -204 186 -136 126 -248 220 -302 256 -68 44 -263 143 -372 188 -83 34 -124 67 -107 84 10 10 17 9 175 -30 39 -9 79 -17 89 -16 11 1 28 -4 39 -10 18 -9 138 -38 160 -38 18 0 -13 33 -104 112 -194 168 -303 237 -499 321 -145 62 -393 148 -402 139 -3 -4 12 -38 34 -77 22 -38 61 -108 86 -155 54 -101 114 -190 278 -414 217 -297 691 -814 1044 -1140 41 -38 127 -118 190 -177 63 -58 133 -122 155 -140 47 -39 97 -84 175 -154 30 -28 84 -76 120 -107 36 -31 79 -70 95 -87 17 -18 47 -48 68 -68 42 -41 47 -54 17 -46 -11 3 -20 9 -20 13 0 4 -24 18 -52 30 -55 23 -235 145 -346 234 -300 240 -384 316 -692 625 -216 217 -493 519 -569 621 -14 19 -49 62 -77 96 -28 33 -71 87 -95 120 -24 32 -54 73 -66 89 -12 17 -33 46 -47 65 -13 19 -45 64 -70 100 -73 103 -186 271 -186 275 0 3 -24 44 -53 92 -132 219 -257 485 -331 706 -37 112 -43 151 -26 162 6 3 10 17 10 31 0 19 -5 24 -25 24 -24 0 -25 -2 -25 -74z"/>
 <path d="M196 3417 c-7 -30 18 -57 36 -38 10 11 10 14 1 18 -7 3 -13 11 -13 18 0 24 -17 26 -24 2z"/>
 <path d="M2350 3171 l0 -40 58 -6 c92 -10 135 -28 152 -61 13 -25 15 -127 18 -698 2 -396 -1 -701 -7 -749 -11 -98 -25 -113 -109 -122 -113 -12 -112 -12 -112 -56 l0 -40 488 3 487 3 82 29 c193 69 273 197 273 436 0 246 -81 388 -273 484 -123 62 -232 85 -426 93 l-153 6 5 286 c3 185 9 297 16 318 16 40 60 58 164 68 l77 7 0 39 0 39 -370 0 -370 0 0 -39z m744 -822 c146 -42 240 -131 285 -271 20 -61 29 -192 20 -282 -14 -136 -49 -206 -129 -255 -67 -41 -120 -52 -287 -58 l-153 -6 0 448 0 448 113 -6 c61 -3 130 -11 151 -18z"/>
 </g>
<g id="layer103" fill="#bfc2fc" stroke="none">
 <path d="M0 3536 c0 -41 5 -78 10 -81 6 -3 10 -16 10 -27 0 -12 8 -30 18 -41 17 -19 16 -20 -11 -13 l-27 6 0 -121 0 -122 70 -138 c62 -124 152 -291 183 -340 8 -14 8 -34 -2 -86 -55 -297 -67 -423 -51 -566 20 -192 72 -317 200 -480 71 -91 76 -85 83 101 5 165 24 248 79 355 21 41 22 41 29 17 4 -14 7 -47 8 -74 2 -104 34 -336 61 -448 44 -184 61 -212 202 -347 157 -150 287 -267 464 -417 77 -65 194 -164 258 -219 65 -55 125 -101 132 -103 18 -4 18 17 0 87 -8 31 -19 79 -25 106 -5 28 -17 82 -27 122 -9 39 -14 77 -12 83 2 7 32 -30 67 -81 101 -148 166 -232 271 -347 146 -160 218 -210 360 -252 41 -12 109 -32 150 -46 195 -62 214 -64 613 -64 l367 0 0 96 c0 84 -2 95 -16 90 -11 -4 -40 16 -92 65 -78 75 -85 79 -513 282 -53 25 -112 60 -130 77 l-34 31 65 -2 c69 -2 265 -34 308 -50 17 -7 29 -6 36 1 7 7 -4 25 -35 58 -25 26 -72 78 -105 117 -142 166 -295 300 -410 359 -93 47 -265 108 -431 152 -76 20 -142 40 -148 44 -5 4 -37 14 -69 21 l-59 14 74 6 c41 4 109 3 152 -2 43 -6 99 -11 125 -13 26 -2 66 -7 90 -11 36 -7 42 -5 36 8 -3 9 -22 28 -42 44 -20 15 -75 63 -122 108 -47 44 -148 136 -225 205 -76 69 -168 152 -204 186 -136 126 -248 220 -302 256 -68 44 -263 143 -372 188 -83 34 -124 67 -107 84 10 10 17 9 175 -30 39 -9 79 -17 89 -16 11 1 28 -4 39 -10 18 -9 138 -38 160 -38 18 0 -13 33 -104 112 -194 168 -303 237 -499 321 -145 62 -393 148 -402 139 -3 -4 12 -38 34 -77 22 -38 61 -108 86 -155 54 -101 114 -190 278 -414 217 -297 691 -814 1044 -1140 41 -38 127 -118 190 -177 63 -58 133 -122 155 -140 47 -39 97 -84 175 -154 30 -28 84 -76 120 -107 36 -31 79 -70 95 -87 17 -18 47 -48 68 -68 42 -41 47 -54 17 -46 -11 3 -20 9 -20 13 0 4 -24 18 -52 30 -55 23 -235 145 -346 234 -300 240 -384 316 -692 625 -216 217 -493 519 -569 621 -14 19 -49 62 -77 96 -28 33 -71 87 -95 120 -24 32 -54 73 -66 89 -12 17 -33 46 -47 65 -13 19 -45 64 -70 100 -73 103 -186 271 -186 275 0 3 -24 44 -53 92 -132 219 -257 485 -331 706 -37 112 -43 151 -26 162 6 3 10 17 10 31 0 19 -5 24 -25 24 -24 0 -25 -2 -25 -74z"/>
 <path d="M196 3417 c-7 -30 18 -57 36 -38 10 11 10 14 1 18 -7 3 -13 11 -13 18 0 24 -17 26 -24 2z"/>
 <path d="M2350 3171 l0 -40 58 -6 c92 -10 135 -28 152 -61 13 -25 15 -127 18 -698 2 -396 -1 -701 -7 -749 -11 -98 -25 -113 -109 -122 -113 -12 -112 -12 -112 -56 l0 -40 488 3 487 3 82 29 c193 69 273 197 273 436 0 246 -81 388 -273 484 -123 62 -232 85 -426 93 l-153 6 5 286 c3 185 9 297 16 318 16 40 60 58 164 68 l77 7 0 39 0 39 -370 0 -370 0 0 -39z m744 -822 c146 -42 240 -131 285 -271 20 -61 29 -192 20 -282 -14 -136 -49 -206 -129 -255 -67 -41 -120 -52 -287 -58 l-153 -6 0 448 0 448 113 -6 c61 -3 130 -11 151 -18z"/>
 </g>
<g id="layer104" fill="#fcfcfe" stroke="none">
 <path d="M0 3536 c0 -41 5 -78 10 -81 6 -3 10 -17 10 -29 0 -13 7 -29 15 -36 12 -10 15 -10 15 3 0 9 -4 18 -9 22 -11 6 -27 135 -23 173 2 12 -2 22 -8 22 -6 0 -10 -30 -10 -74z"/>
 <path d="M208 3415 c2 -15 11 -25 21 -24 10 0 11 2 4 6 -7 2 -13 11 -13 18 0 8 -4 16 -9 19 -4 3 -6 -6 -3 -19z"/>
 <path d="M2 3269 l4 -114 51 -105 c63 -128 169 -326 193 -360 28 -42 30 -58 14 -133 -35 -156 -44 -228 -50 -387 -5 -133 -3 -180 10 -245 20 -97 59 -202 100 -270 36 -60 116 -165 126 -165 4 0 10 60 13 133 7 143 23 214 79 345 17 39 36 72 43 72 15 0 25 -32 25 -85 0 -92 41 -388 68 -495 44 -172 59 -196 224 -351 159 -150 335 -306 507 -449 62 -52 154 -130 203 -173 50 -43 92 -76 95 -74 4 4 -9 74 -37 212 -5 22 -16 67 -24 100 -30 113 -10 142 39 58 92 -155 305 -420 425 -527 86 -77 131 -98 344 -162 311 -94 312 -94 693 -94 l333 0 0 95 0 95 -25 -6 c-21 -5 -36 4 -95 60 -72 68 -74 69 -495 270 -66 32 -123 62 -126 67 -3 5 -30 22 -60 37 -29 15 -55 34 -57 43 -2 14 5 16 49 12 29 -2 60 -8 70 -13 10 -6 39 -10 66 -10 26 -1 68 -5 93 -11 80 -17 164 -28 170 -23 3 3 -10 19 -28 35 -17 16 -32 32 -32 35 0 28 -280 310 -347 349 -18 11 -33 23 -33 27 0 23 -349 163 -470 188 -76 16 -165 42 -174 51 -6 5 -22 9 -37 9 -14 0 -39 5 -56 10 -16 6 -63 16 -103 23 -77 13 -111 37 -80 57 22 14 71 11 100 -5 17 -10 59 -15 130 -15 100 -2 165 -8 255 -27 22 -4 55 -7 73 -5 28 3 31 6 21 18 -6 8 -16 14 -21 14 -6 0 -65 52 -132 117 -66 64 -133 123 -147 132 -14 9 -91 78 -170 155 -79 76 -155 146 -168 154 -13 9 -56 47 -94 84 -39 37 -107 90 -152 117 -82 50 -276 146 -354 176 -25 9 -59 26 -75 38 -17 12 -48 30 -68 39 -26 12 -38 24 -38 38 0 21 33 29 45 10 3 -5 25 -10 48 -10 23 -1 62 -6 87 -11 25 -6 61 -13 80 -16 19 -3 44 -11 55 -18 11 -7 44 -15 74 -18 29 -4 64 -13 77 -22 22 -14 25 -14 30 0 4 9 5 17 3 19 -5 3 -162 135 -214 179 -22 19 -58 44 -80 56 -22 12 -62 35 -90 52 -68 41 -164 85 -285 132 -124 48 -259 91 -265 85 -3 -3 8 -27 24 -54 16 -27 51 -89 77 -139 25 -49 55 -99 65 -111 11 -11 19 -25 19 -30 0 -6 8 -19 18 -30 10 -10 35 -44 55 -76 21 -31 44 -62 52 -68 8 -7 15 -18 15 -25 0 -7 7 -19 16 -26 9 -7 31 -36 49 -64 18 -27 49 -67 69 -88 20 -21 36 -41 36 -44 0 -7 81 -102 114 -134 14 -13 26 -30 26 -38 0 -7 59 -73 130 -145 72 -73 130 -138 130 -145 0 -17 576 -591 593 -591 7 0 60 -48 117 -106 58 -58 136 -131 175 -162 38 -31 103 -90 145 -130 41 -39 79 -72 84 -72 5 0 63 -53 130 -117 67 -65 140 -135 164 -156 41 -37 49 -56 25 -64 -5 -2 -38 16 -72 39 -95 65 -113 75 -151 89 -19 6 -43 20 -54 31 -10 11 -43 36 -73 56 -31 21 -66 44 -79 52 -23 16 -83 64 -203 163 -35 28 -73 59 -86 67 -12 8 -72 62 -134 120 -61 58 -119 109 -129 113 -21 10 -412 401 -412 413 0 9 -55 68 -211 230 -38 40 -69 75 -69 79 0 7 -22 34 -195 238 -41 49 -75 92 -75 97 0 4 -16 25 -35 46 -19 22 -35 43 -35 48 0 4 -12 23 -27 41 -16 18 -39 50 -53 70 -14 20 -33 46 -43 56 -9 10 -17 23 -17 27 0 4 -13 23 -30 42 -16 19 -29 40 -30 45 0 6 -13 26 -29 45 -15 19 -37 50 -47 69 -10 18 -23 41 -29 50 -5 9 -23 39 -39 66 -16 28 -32 52 -36 55 -3 3 -16 25 -29 50 -13 25 -54 104 -91 175 -37 72 -78 155 -90 185 -13 30 -36 83 -51 118 -16 34 -29 69 -29 77 0 24 -22 65 -36 65 -7 0 -20 3 -29 6 -15 6 -16 -4 -13 -107z"/>
 <path d="M2350 3170 c0 -35 3 -40 23 -41 110 -3 159 -17 184 -56 17 -25 18 -71 18 -768 0 -683 -1 -743 -17 -767 -24 -37 -61 -48 -195 -57 -8 -1 -13 -16 -13 -41 l0 -41 463 1 c449 1 466 2 543 24 43 12 89 28 100 34 12 6 23 9 26 7 11 -11 104 76 134 125 46 76 64 154 64 280 0 119 -18 206 -56 282 -30 59 -116 154 -148 164 -11 3 -28 12 -36 19 -28 23 -155 68 -250 87 -96 20 -129 23 -279 26 l-83 2 3 298 c4 290 5 298 27 329 17 23 34 34 70 42 26 5 54 9 62 9 8 -1 34 0 58 0 l42 2 0 40 0 40 -370 0 -370 0 0 -40z m780 -829 c134 -47 203 -121 255 -276 18 -52 25 -250 12 -328 -10 -62 -54 -143 -97 -180 -65 -55 -122 -69 -307 -75 l-163 -4 0 447 0 447 118 -4 c86 -4 134 -11 182 -27z"/>
 </g>

</svg>