<!DOCTYPE svg PUBLIC "-//W3C//DTD SVG 20010904//EN" "http://www.w3.org/TR/2001/REC-SVG-20010904/DTD/svg10.dtd">
<svg version="1.0" xmlns="http://www.w3.org/2000/svg" width="500px" height="500px" viewBox="0 0 5000 5000" preserveAspectRatio="xMidYMid meet">
<g id="layer101" fill="#0309f6" stroke="none">
 <path d="M384 1996 c3 -13 9 -31 12 -40 4 -12 0 -16 -15 -16 l-21 0 0 -610 0 -610 630 0 630 0 0 605 0 605 -570 0 -570 0 -41 45 c-46 50 -64 57 -55 21z"/>
 <path d="M1742 1959 c29 -33 57 -66 62 -74 12 -16 -131 -363 -156 -379 -34 -21 -18 -26 77 -26 57 0 95 4 95 10 0 6 -11 10 -24 10 -14 0 -28 5 -31 11 -4 6 17 69 46 140 l52 129 54 -122 c30 -67 52 -129 51 -138 -2 -8 -13 -16 -26 -18 -48 -7 -19 -22 43 -22 36 0 65 3 65 6 0 3 -9 13 -19 22 -11 10 -70 128 -131 265 l-112 247 -50 0 -50 0 54 -61z"/>
 <path d="M2248 1880 c-50 -15 -96 -50 -127 -97 -35 -53 -46 -94 -46 -178 1 -177 96 -275 267 -275 42 0 99 5 127 12 l51 11 0 54 c0 50 -1 53 -25 53 -21 0 -25 -5 -25 -29 0 -37 -36 -67 -89 -76 -85 -14 -165 36 -196 124 -24 70 -20 205 9 267 38 81 109 120 199 108 l47 -6 0 -61 c0 -87 -7 -105 -41 -112 -61 -14 -24 -25 81 -25 106 0 140 10 83 25 -39 9 -43 19 -43 111 l0 81 -57 12 c-64 13 -175 13 -215 1z"/>
 </g>
<g id="layer102" fill="#828282" stroke="none">
 <path d="M381 2008 c0 -7 4 -22 9 -33 8 -19 9 -19 9 3 1 12 1 25 2 29 0 4 -4 9 -10 11 -6 2 -11 -2 -10 -10z"/>
 <path d="M383 1942 l-23 -3 0 -610 0 -609 630 0 630 0 0 40 c0 54 -25 77 -167 147 -62 30 -113 59 -113 63 0 6 99 -5 128 -15 26 -10 9 18 -55 85 -72 77 -156 125 -266 154 -95 24 -95 38 1 27 34 -4 61 -5 60 -1 -2 3 -68 66 -148 138 -119 109 -161 141 -235 178 -131 66 -136 75 -30 49 90 -21 95 -18 44 28 -54 50 -135 94 -237 131 l-73 26 37 -68 c110 -198 309 -420 652 -725 72 -65 132 -121 132 -123 0 -8 -66 33 -133 82 -304 222 -660 649 -778 933 -17 42 -32 76 -33 76 0 1 -11 -1 -23 -3z"/>
 <path d="M1210 1871 c0 -5 16 -12 35 -15 l35 -7 0 -238 0 -239 -35 -6 c-19 -4 -35 -11 -35 -16 0 -6 62 -10 153 -10 183 0 210 9 241 84 18 41 19 52 7 94 -7 26 -20 55 -29 66 -30 33 -113 66 -169 66 l-53 0 0 95 c0 83 2 96 19 105 11 5 29 10 40 10 12 0 21 5 21 10 0 6 -45 10 -115 10 -63 0 -115 -4 -115 -9z m285 -281 c26 -26 30 -38 33 -98 4 -61 1 -71 -20 -97 -21 -24 -34 -29 -86 -33 l-62 -4 0 137 0 138 53 -7 c39 -5 60 -15 82 -36z"/>
 </g>
<g id="layer103" fill="#fbfcfe" stroke="none">
 <path d="M381 2008 c0 -7 4 -22 9 -33 8 -19 9 -19 9 3 1 12 1 25 2 29 0 4 -4 9 -10 11 -6 2 -11 -2 -10 -10z"/>
 <path d="M383 1942 l-23 -3 0 -610 c0 -335 3 -609 8 -609 4 0 6 262 5 582 l-3 583 56 -104 56 -104 -12 -73 c-23 -131 -1 -250 58 -316 25 -29 32 -21 32 37 0 30 8 74 17 97 l18 43 11 -90 c18 -145 29 -174 87 -230 62 -60 301 -265 305 -261 1 2 -5 34 -13 71 -9 37 -14 69 -12 71 2 3 20 -19 39 -48 19 -29 58 -79 87 -110 57 -62 99 -83 234 -114 42 -10 77 -22 77 -26 0 -4 47 -8 105 -8 l105 0 0 40 c0 54 -25 77 -167 147 -62 30 -113 59 -113 63 0 6 99 -5 128 -15 26 -10 9 18 -55 85 -72 77 -156 125 -266 154 -95 24 -95 38 1 27 34 -4 61 -5 60 -1 -2 3 -68 66 -148 138 -119 109 -161 141 -235 178 -131 66 -136 75 -30 49 90 -21 95 -18 44 28 -54 50 -135 94 -237 131 l-73 26 37 -68 c110 -198 309 -420 652 -725 72 -65 132 -121 132 -123 0 -8 -66 33 -133 82 -304 222 -660 649 -778 933 -17 42 -32 76 -33 76 0 1 -11 -1 -23 -3z"/>
 <path d="M1210 1871 c0 -5 16 -12 35 -15 l35 -7 0 -238 0 -239 -35 -6 c-19 -4 -35 -11 -35 -16 0 -6 62 -10 153 -10 183 0 210 9 241 84 18 41 19 52 7 94 -7 26 -20 55 -29 66 -30 33 -113 66 -169 66 l-53 0 0 95 c0 83 2 96 19 105 11 5 29 10 40 10 12 0 21 5 21 10 0 6 -45 10 -115 10 -63 0 -115 -4 -115 -9z m285 -281 c26 -26 30 -38 33 -98 4 -61 1 -71 -20 -97 -21 -24 -34 -29 -86 -33 l-62 -4 0 137 0 138 53 -7 c39 -5 60 -15 82 -36z"/>
 </g>

</svg>